<svg width="34" height="38" fill="none" xmlns="http://www.w3.org/2000/svg"><g clip-path="url(#a)"><path d="M6 20.7v-2.2A143.3 143.3 0 0 1 26.3 17V19a25.5 25.5 0 0 1 6-1.9 16.7 16.7 0 0 0-32 3.3l5.9.3Zm21.2 3.5c-1.1 1.3-1.4 1.2-1.4 3.5v9.2A16.6 16.6 0 0 0 33.3 23a17.3 17.3 0 0 0-.3-3.1 33.1 33.1 0 0 0-5.8 4.3ZM6.4 25.7 1.2 24a8.5 8.5 0 0 0-1.2-.3 16.6 16.6 0 0 0 8.7 14L6.4 25.7Z" fill="#FDC305"/><path d="M26.3 17.1A89.8 89.8 0 0 0 24.9.6s-.1-1.2-.9-.2a14.2 14.2 0 0 0-1.2 4 70.3 70.3 0 0 0-12.8.3C9.2 2 7.8.7 7.2 1c-.7.3-.7 3.3-.7 3.3L6 18.4a143.2 143.2 0 0 1 20.2-1.3Z" fill="#F06351"/><path d="m12.4 14 1.4 1c.4.2.6.3.6.5s-.2.3-.6.3-1 0-1-.2H14a8.3 8.3 0 0 1-1.6-1.6Zm7.5.1-1.1 1.3c0 .1-.2.4.2.3a7.4 7.4 0 0 0 1.2-.2l-.1-.2h-1l.8-1.2s.1-.1 0 0Zm-3.1 6.1a2.3 2.3 0 0 0 1-1c.3-.7 0-1-.4-1a2.4 2.4 0 0 0-1.7.3c-.4.4-.4.8 0 1a5.3 5.3 0 0 0 1 .7Z" fill="#000"/><path d="M16.4 21.4a2 2 0 0 1-.5.7 1.7 1.7 0 0 1-1 .3 2.1 2.1 0 0 1-1.5-.4 2.3 2.3 0 0 1-.5-.4 1 1 0 0 0-.4-.3s.8 4.1 2.6 4.7c1.8.7 2.1-.7 2.2-1a5.6 5.6 0 0 0-.8-3.3l-.1-.3Z" fill="#F06351"/><path d="M14.7 22.6a3.4 3.4 0 0 1-2.4-1.5.1.1 0 0 1 0-.1.1.1 0 0 1 .3 0 3.3 3.3 0 0 0 2 1.3 2 2 0 0 0 1.7-1l.2-.2v.2s.4.7 1 .8c.7 0 1.1-.4 1.7-1.3a.1.1 0 0 1 .2 0 .1.1 0 0 1 0 .2c-.6 1-1.2 1.4-1.9 1.4a1.5 1.5 0 0 1-1-.8 2.3 2.3 0 0 1-1.8 1Z" fill="#000"/><path d="M26.2 19a58.6 58.6 0 0 0-5 5.1 31.6 31.6 0 0 1-5.3 4.9c-.2-.5-1.6-1.5-1.6-1.5S11 25.3 9 23.7a34.1 34.1 0 0 1-3.1-3l-2-.1a22.6 22.6 0 0 0 12 8.8c.8-.2 3.2-1.9 5-3.3a58.1 58.1 0 0 0 6-5.9 6.2 6.2 0 0 0 1.1-2l-1.9.7Z" fill="#F06351"/></g><defs><clipPath id="a"><path fill="#fff" d="M0 0h33.3v37.6H0z"/></clipPath></defs></svg>